PathFileType	3	(X/Y/Z)	F:\ViconData\AntennenMessung\Messung1\Session1\ID20.trc
DataRate	CameraRate	NumFrames	NumMarkers	Units	OrigDataRate	OrigDataStartFrame	OrigNumFrames
120.0	120.0	4	70	mm	120.0	778	1036	
Frame#	Time	Ashort			Along			Atop			A4			Bshort			Blong			Btop			B4			Cshort			Clong			Ctop			C4			Dshort			Dlong			Dtop			D4			Eshort			Elong			Etop			E4			Fshort			Flong			Ftop			F4			Gshort			Glong			Gtop			G4			Hshort			Hlong			Htop			H4			I1			I2			I3			I4			I5			WandAshort			WandAlong			WandAtop			WandA4			WandA15			WandBshort			WandB4			WandB5			WandBtop			WandBlong			WandCshort			WandClong			WandCtop			WandC4			WandC5			Acenter			Aantenna			Bcenter			Bantenna			Ccenter			Cantenna			Dcenter			Dantenna			Ecenter			Eantenna			Fcenter			Fantenna			Gcenter			Gantenna			Hcenter			Hantenna			Icenter			Iantenna			
		X1	Y1	Z1	X2	Y2	Z2	X3	Y3	Z3	X4	Y4	Z4	X5	Y5	Z5	X6	Y6	Z6	X7	Y7	Z7	X8	Y8	Z8	X9	Y9	Z9	X10	Y10	Z10	X11	Y11	Z11	X12	Y12	Z12	X13	Y13	Z13	X14	Y14	Z14	X15	Y15	Z15	X16	Y16	Z16	X17	Y17	Z17	X18	Y18	Z18	X19	Y19	Z19	X20	Y20	Z20	X21	Y21	Z21	X22	Y22	Z22	X23	Y23	Z23	X24	Y24	Z24	X25	Y25	Z25	X26	Y26	Z26	X27	Y27	Z27	X28	Y28	Z28	X29	Y29	Z29	X30	Y30	Z30	X31	Y31	Z31	X32	Y32	Z32	X33	Y33	Z33	X34	Y34	Z34	X35	Y35	Z35	X36	Y36	Z36	X37	Y37	Z37	X38	Y38	Z38	X39	Y39	Z39	X40	Y40	Z40	X41	Y41	Z41	X42	Y42	Z42	X43	Y43	Z43	X44	Y44	Z44	X45	Y45	Z45	X46	Y46	Z46	X47	Y47	Z47	X48	Y48	Z48	X49	Y49	Z49	X50	Y50	Z50	X51	Y51	Z51	X52	Y52	Z52	X53	Y53	Z53	X54	Y54	Z54	X55	Y55	Z55	X56	Y56	Z56	X57	Y57	Z57	X58	Y58	Z58	X59	Y59	Z59	X60	Y60	Z60	X61	Y61	Z61	X62	Y62	Z62	X63	Y63	Z63	X64	Y64	Z64	X65	Y65	Z65	X66	Y66	Z66	X67	Y67	Z67	X68	Y68	Z68	X69	Y69	Z69	X70	Y70	Z70	
778	6.475	-1038.2509	214.48164	-1644.1826	-1109.3884	204.131	-1599.3143	-1063.9667	172.61264	-1625.4286	-1054.2449	262.29584	-1635.03	-1352.921	234.93823	1003.5884	-1281.3387	227.11273	1052.4235	-1322.7592	193.88396	1020.9594	-1284.6877	287.87323	1052.7903	813.86768	187.67557	1209.5789	892.82532	178.95119	1178.8069	844.33521	145.51019	1198.4041	860.88293	292.45172	1168.3851	1115.6691	209.55591	-1401.6245	1056.0491	193.96863	-1460.4276	1095.0625	162.39397	-1423.951	1069.8033	238.54298	-1425.8022	-1204.5253	1685.912	-1563.1697	-1129.1479	1688.29	-1606.026	-1173.1639	1724.323	-1581.9456	-1134.0586	1580.9707	-1603.8794	-1239.6072	1699.1573	1119.5773	-1309.2971	1698.6605	1071.9482	-1270.4114	1736.293	1096.9539	-1245.4731	1592.7162	1110.7625	988.86896	1664.2239	1162.2651	955.86426	1702.2506	1181.0745	923.00983	1662.0651	1215.262	939.78192	1659.4354	1159.9026	998.94409	1668.4912	-1579.5349	1058.7793	1670.1484	-1518.6735	1024.9119	1708.0359	-1551.1694	1059.1908	1672.1385	-1585.5001	-113.4788	160.04431	-224.04532	-29.192764	168.71039	-221.12297	-72.171707	127.00832	-224.66641	-75.769501	164.97388	-254.80405	-78.497658	163.25961	-175.44868																																														-1069.0027	210.00717	-1624.7865	-1074.2072	248.65265	-1624.123	-1321.4457	231.49728	1025.0615	-1320.0928	270.24405	1029.2874	847.78381	183.92801	1196.3608	851.26581	222.71745	1194.2979	1088.7441	202.51657	-1428.1804	1082.7101	240.83463	-1432.2196	-1171.8667	1686.9423	-1581.738	-1170.514	1647.9664	-1581.5216	-1270.9614	1698.9337	1098.1484	-1271.5353	1659.9579	1099.3948	953.58777	1704.8733	1182.3718	972.80902	1731.7826	1161.6973	1026.4158	1669.2521	-1551.5919	1027.9269	1630.2837	-1552.0164	-76.030815	163.89462	-222.7469	-80.083488	202.63107	-220.73114
779	6.4833333	-1038.2372	214.51273	-1644.1914	-1109.3795	204.23694	-1599.3408	-1063.9359	172.59598	-1625.4135	-1054.2074	262.29672	-1635.0264	-1352.9344	234.88037	1003.5851	-1281.3661	227.03328	1052.5302	-1322.7455	193.94556	1020.92	-1284.7906	287.86703	1052.8346	813.9137	187.68529	1209.45	892.4762	178.47519	1179.2562	844.40405	145.48981	1198.4448	860.95435	292.40683	1168.5406	1115.707	209.82774	-1401.7839	1056.0273	193.92769	-1460.4302	1095.0897	162.45193	-1423.9402	1069.8064	238.54492	-1425.8071	-1204.5388	1685.9147	-1563.1595	-1129.1519	1688.2756	-1606.0056	-1173.1951	1724.4043	-1581.9393	-1134.0544	1580.9634	-1603.8715	-1239.6545	1699.2401	1119.6063	-1309.2225	1698.5797	1071.9336	-1270.4436	1736.3318	1096.9708	-1245.473	1592.7465	1110.7698	988.87225	1664.2153	1162.2639	955.95947	1702.2794	1181.1907	922.88055	1662.0656	1215.1942	939.78595	1659.386	1159.958	998.92267	1668.494	-1579.5404	1058.6708	1669.9806	-1518.6677	1024.9083	1708.0343	-1551.162	1059.1833	1672.1405	-1585.4954	-113.47243	160.03185	-224.06476	-29.181345	168.71036	-221.13818	-72.153351	127.04256	-224.70316	-75.796959	164.96979	-254.78873	-78.497749	163.21487	-175.43687																																														-1068.9719	210.07339	-1624.8151	-1074.1653	248.72115	-1624.1982	-1321.4878	231.43239	1025.0913	-1320.1881	270.17163	1029.4017	848.06628	183.68147	1196.3241	851.78326	222.44421	1194.1716	1088.696	202.63138	-1428.327	1082.6025	240.92482	-1432.5082	-1171.8933	1686.937	-1581.7135	-1170.5393	1647.9613	-1581.4788	-1270.9186	1698.9432	1098.1821	-1271.4139	1659.9668	1099.4447	953.664	1704.9342	1182.5107	973.00372	1731.8665	1161.9773	1026.3342	1669.176	-1551.6127	1027.7644	1630.2048	-1552.0647	-76.014282	163.88849	-222.76421	-80.073128	202.62309	-220.72588
780	6.4916667	-1038.2411	214.44398	-1644.142	-1109.3937	204.18582	-1599.3298	-1063.9618	172.58823	-1625.3833	-1054.229	262.27481	-1635.0178	-1352.9249	234.89848	1003.6565	-1281.3572	227.03459	1052.5056	-1322.7366	193.93822	1020.9608	-1284.7861	287.82626	1052.9214	814.00134	187.75621	1209.5554	892.33234	178.25287	1179.3925	844.43036	145.4839	1198.3705	860.74341	292.24872	1168.3096	1115.6984	209.81833	-1401.7856	1056.0631	193.94107	-1460.3967	1095.103	162.45071	-1423.9138	1069.8239	238.61034	-1425.8678	-1204.5293	1685.9244	-1563.1742	-1129.16	1688.2601	-1605.9835	-1173.2393	1724.317	-1581.816	-1134.0771	1580.9706	-1603.8651	-1239.6096	1699.1613	1119.5863	-1309.2421	1698.584	1071.9191	-1270.4165	1736.2897	1096.9572	-1245.4557	1592.6895	1110.7439	988.87134	1664.2356	1162.267	955.7865	1702.3209	1181.0684	922.9726	1662.0037	1215.1659	939.77881	1659.4352	1159.9216	998.93243	1668.4922	-1579.5327	1058.6653	1669.9738	-1518.691	1024.9011	1708.0425	-1551.1542	1059.1853	1672.1423	-1585.495	-113.46038	160.01865	-224.05011	-29.182661	168.70651	-221.12534	-72.146034	127.03425	-224.69095	-75.784218	164.97314	-254.78035	-78.475868	163.25496	-175.44609																																														-1068.9791	210.01242	-1624.783	-1074.1608	248.6617	-1624.1631	-1321.4624	231.44136	1025.1315	-1320.1464	270.18036	1029.4395	848.27875	183.59755	1196.3561	852.19141	222.34673	1194.3082	1088.7178	202.63507	-1428.3026	1082.6329	240.92972	-1432.4851	-1171.9899	1686.9327	-1581.6564	-1170.6874	1647.9548	-1581.4897	-1270.9231	1698.9016	1098.1504	-1271.4514	1659.9249	1099.3943	953.60388	1704.8334	1182.3087	972.85126	1731.7458	1161.6627	1026.3381	1669.1718	-1551.6183	1027.7787	1630.2012	-1552.0837	-76.011559	163.87909	-222.75047	-80.075294	202.61311	-220.71051
781	6.5	-1038.2084	214.52585	-1644.1886	-1109.3773	204.27573	-1599.3771	-1063.7937	173.0681	-1625.674	-1054.2091	262.28912	-1635.0155	-1352.9319	234.86717	1003.655	-1281.3513	227.09477	1052.5104	-1322.726	193.94131	1020.9388	-1284.7566	287.82574	1052.8512	813.95563	187.72083	1209.5042	892.40961	178.4458	1179.2679	844.35657	145.49763	1198.5333	860.82654	292.35721	1168.4451	1115.7186	209.84103	-1401.7915	1056.1312	194.00156	-1460.3698	1095.0902	162.58385	-1423.9999	1069.8253	238.54301	-1425.8234	-1204.533	1685.9209	-1563.1609	-1129.1677	1688.2473	-1605.975	-1173.2046	1724.3678	-1581.8965	-1134.0638	1580.9814	-1603.8834	-1239.6125	1699.1589	1119.5815	-1309.3304	1698.7684	1071.9996	-1270.4291	1736.3287	1096.9697	-1245.4709	1592.7579	1110.7671	988.85034	1664.2075	1162.2639	955.83984	1702.3628	1181.111	922.87732	1661.9943	1215.2748	939.80505	1659.4048	1159.8937	998.92578	1668.4951	-1579.547	1058.662	1669.9767	-1518.6714	1024.9045	1708.0249	-1551.1707	1059.1848	1672.1368	-1585.4912	-113.46942	160.01941	-224.05095	-29.205029	168.72061	-221.14087	-72.21563	126.95689	-224.66769	-75.795685	164.97575	-254.86395	-78.474358	163.25513	-175.42755																																														-1068.7008	210.13416	-1624.9889	-1073.8186	248.79031	-1624.2748	-1321.4989	231.45409	1025.1086	-1320.2316	270.19485	1029.4152	848.03778	183.69153	1196.3688	851.77338	222.45001	1194.1724	1088.7079	202.66109	-1428.3445	1082.6094	240.95694	-1432.4961	-1171.9279	1686.9274	-1581.6833	-1170.5988	1647.9507	-1581.4617	-1271.022	1698.9828	1098.1449	-1271.6406	1660.0071	1099.3713	953.65796	1704.8846	1182.3567	972.95325	1731.7711	1161.7216	1026.328	1669.1747	-1551.6221	1027.756	1630.2035	-1552.0748	-76.094093	163.87881	-222.76019	-80.163063	202.6143	-220.75899
